<svg xmlns="http://www.w3.org/2000/svg" width="800" height="195" viewBox="0 0 800 195">
  <defs>
    <linearGradient id="grad" x1="0" y1="0" x2="1" y2="0">
      <stop offset="0%" stop-color="#00FF9C"/>
      <stop offset="100%" stop-color="#7C3AED"/>
    </linearGradient>
  </defs>
  <rect width="800" height="195" fill="#0d1117" rx="8"/>
  <text x="20" y="28" fill="#58a6ff" font-size="13" font-family="Courier New, monospace">$ tail -f /var/log/current-focus.log</text>
  <line x1="20" y1="36" x2="780" y2="36" stroke="#21262d" stroke-width="1"/>
  <text x="20" y="66" fill="#00FF9C" font-size="12" font-family="Courier New, monospace">+ Distributed Systems      </text>
  <rect x="255" y="55" width="488" height="10" fill="#21262d" rx="5"/>
  <rect x="255" y="55" width="293" height="10" fill="url(#grad)" rx="5"><animate attributeName="width" from="0" to="293" dur="1.5s" fill="freeze"/></rect>
  <text x="755" y="66" fill="#8b949e" font-size="11" font-family="Courier New, monospace">60%</text>
  <text x="20" y="101" fill="#00FF9C" font-size="12" font-family="Courier New, monospace">+ Microservices Orch.      </text>
  <rect x="255" y="90" width="488" height="10" fill="#21262d" rx="5"/>
  <rect x="255" y="90" width="244" height="10" fill="url(#grad)" rx="5"><animate attributeName="width" from="0" to="244" dur="1.5s" begin="0.2s" fill="freeze"/></rect>
  <text x="755" y="101" fill="#8b949e" font-size="11" font-family="Courier New, monospace">50%</text>
  <text x="20" y="136" fill="#00FF9C" font-size="12" font-family="Courier New, monospace">+ AI / Machine Learning    </text>
  <rect x="255" y="125" width="488" height="10" fill="#21262d" rx="5"/>
  <rect x="255" y="125" width="390" height="10" fill="url(#grad)" rx="5"><animate attributeName="width" from="0" to="390" dur="1.5s" begin="0.4s" fill="freeze"/></rect>
  <text x="755" y="136" fill="#8b949e" font-size="11" font-family="Courier New, monospace">80%</text>
  <text x="20" y="171" fill="#00FF9C" font-size="12" font-family="Courier New, monospace">+ Performance Optimization </text>
  <rect x="255" y="160" width="488" height="10" fill="#21262d" rx="5"/>
  <rect x="255" y="160" width="342" height="10" fill="url(#grad)" rx="5"><animate attributeName="width" from="0" to="342" dur="1.5s" begin="0.6s" fill="freeze"/></rect>
  <text x="755" y="171" fill="#8b949e" font-size="11" font-family="Courier New, monospace">70%</text>
</svg>